<svg xmlns="http://www.w3.org/2000/svg" viewBox="0 0 1440 320"><path fill="#f9fafb" fill-opacity="1" d="M0,288L15,245.3C30,203,60,117,90,112C120,107,150,181,180,202.7C210,224,240,192,270,186.7C300,181,330,203,360,218.7C390,235,420,245,450,218.7C480,192,510,128,540,122.7C570,117,600,171,630,208C660,245,690,267,720,266.7C750,267,780,245,810,208C840,171,870,117,900,106.7C930,96,960,128,990,165.3C1020,203,1050,245,1080,234.7C1110,224,1140,160,1170,160C1200,160,1230,224,1260,234.7C1290,245,1320,203,1350,181.3C1380,160,1410,160,1425,160L1440,160L1440,320L1425,320C1410,320,1380,320,1350,320C1320,320,1290,320,1260,320C1230,320,1200,320,1170,320C1140,320,1110,320,1080,320C1050,320,1020,320,990,320C960,320,930,320,900,320C870,320,840,320,810,320C780,320,750,320,720,320C690,320,660,320,630,320C600,320,570,320,540,320C510,320,480,320,450,320C420,320,390,320,360,320C330,320,300,320,270,320C240,320,210,320,180,320C150,320,120,320,90,320C60,320,30,320,15,320L0,320Z"></path></svg>